PathFileType	4	(X/Y/Z)	C:\Users\Graham\Documents\MATLAB\MOtoNMS_v2_2\MyData\ElaboratedData\S4\17-05-18\staticElaborations\Static1\Static1\\Static1.trc
DataRate	CameraRate	NumFrames	NumMarkers	Units	OrigDataRate	DataStartFrame
100	100	5	38	mm	100	2
Frame#	Time	V_Sacral			R_ASIS			L_ASIS			R_Knee_Lat			R_Knee_Med			R_Thigh_Upper			R_Thigh_Front			R_Thigh_Rear			L_Knee_Lat			L_Knee_Med			L_Thigh_Upper			L_Thigh_Front			L_Thigh_Rear			R_Ankle_Lat			R_Ankle_Med			R_Shank_Upper			R_Shank_Front			R_Shank_Rear			L_Ankle_Lat			L_Ankle_Med			L_Shank_Upper			L_Shank_Front			L_Shank_Rear			R_Heel			R_MTP1			R_MTP5			L_Heel			L_MTP1			L_MTP5			Clavicle			R_Acromium			L_Acromium			LAJC			RAJC			LHJC			RHJC			LKJC			RKJC		
		X1	Y1	Z1	X2	Y2	Z2	X3	Y3	Z3	X4	Y4	Z4	X5	Y5	Z5	X6	Y6	Z6	X7	Y7	Z7	X8	Y8	Z8	X9	Y9	Z9	X10	Y10	Z10	X11	Y11	Z11	X12	Y12	Z12	X13	Y13	Z13	X14	Y14	Z14	X15	Y15	Z15	X16	Y16	Z16	X17	Y17	Z17	X18	Y18	Z18	X19	Y19	Z19	X20	Y20	Z20	X21	Y21	Z21	X22	Y22	Z22	X23	Y23	Z23	X24	Y24	Z24	X25	Y25	Z25	X26	Y26	Z26	X27	Y27	Z27	X28	Y28	Z28	X29	Y29	Z29	X30	Y30	Z30	X31	Y31	Z31	X32	Y32	Z32	X33	Y33	Z33	X34	Y34	Z34	X35	Y35	Z35	X36	Y36	Z36	X37	Y37	Z37	X38	Y38	Z38	

110	1.090000	-138.889791	1011.622072	19.921240	63.027751	982.639639	150.160305	80.062809	976.394630	-84.788841	-46.846311	505.500028	204.258710	-44.027371	493.349034	94.094827	87.990447	737.705834	140.679398	37.809305	632.134167	90.479896	39.578187	624.186680	175.017972	-59.243747	512.602018	-158.715878	-74.515893	486.364336	-38.495503	90.523630	756.976865	-70.845833	40.300056	643.693589	-33.599199	54.083032	639.574591	-109.897328	-155.119115	103.764806	223.226205	-132.382777	119.321935	130.648057	-30.371785	328.036200	189.747550	-87.859656	223.728998	144.269953	-88.831545	225.708859	225.963629	-146.774012	97.084028	-152.587148	-125.018480	120.606394	-61.055779	-41.431299	367.228460	-125.508643	-80.864247	252.423120	-85.387081	-76.218426	254.956641	-166.342021	-225.937015	57.789583	179.774982	5.031318	64.274534	165.534252	-8.914480	58.343595	238.394987	-220.196449	55.398796	-104.873858	8.640428	60.784885	-83.179091	-15.722892	55.406593	-171.425131	12.587554	1393.744151	16.248409	-74.542786	1444.671448	206.962191	-73.664241	1439.937439	-176.657184	-135.896246	108.845211	-106.821463	-143.750946	111.543371	176.937131	5.104187	905.793678	-55.489336	-7.194387	910.302303	114.133761	-66.879820	499.483177	-98.605690	-45.436841	499.424531	149.176769	
111	1.100000	-138.803806	1011.618866	19.909344	63.120579	982.631504	150.138506	80.150934	976.385571	-84.809520	-46.789292	505.495175	204.246882	-43.983201	493.309403	93.983369	88.057502	737.685555	140.657557	37.871190	632.116798	90.462958	39.660040	624.180689	175.001885	-59.208253	512.599245	-158.732046	-74.491512	486.370142	-38.491602	90.586832	756.959576	-70.857904	40.516527	643.813142	-33.623767	54.133971	639.561141	-109.907777	-155.106822	103.771086	223.221762	-132.374841	119.324711	130.642186	-30.335900	328.029132	189.735259	-87.794078	223.739767	144.254378	-88.803903	225.713036	225.954817	-146.769240	97.087926	-152.587259	-125.011256	120.609042	-61.057701	-41.408875	367.228775	-125.515080	-80.854392	252.424256	-85.392361	-76.202281	254.957333	-166.345662	-225.930903	57.798695	179.771551	5.039422	64.282004	165.531601	-8.912742	58.341799	238.392666	-220.194810	55.404788	-104.872474	8.640203	60.786739	-83.190625	-15.721222	55.404339	-171.423847	12.661854	1393.732353	16.216399	-74.446302	1444.658784	206.936422	-73.594960	1439.928970	-176.681112	-135.890248	108.848484	-106.822480	-143.740831	111.547899	176.931974	5.190307	905.786911	-55.508746	-7.104877	910.296206	114.113630	-66.849882	499.484694	-98.611824	-45.386247	499.402289	149.115125	
112	1.110000	-138.717806	1011.617275	19.896179	63.207219	982.623484	150.118953	80.239395	976.376966	-84.828211	-46.733625	505.490581	204.235109	-43.940598	493.273489	93.885074	88.119541	737.667505	140.637499	37.934716	632.102076	90.447903	39.737006	624.174703	174.986989	-59.171338	512.596792	-158.747101	-74.467212	486.377684	-38.486161	90.650125	756.942949	-70.866796	40.750251	643.946477	-33.646195	54.185640	639.548416	-109.914917	-155.095804	103.777987	223.216792	-132.366785	119.328228	130.635974	-30.301588	328.022697	189.723310	-87.734829	223.747713	144.240536	-88.776954	225.717175	225.945912	-146.763763	97.092531	-152.586915	-125.003779	120.611789	-61.058988	-41.385437	367.229555	-125.520304	-80.844462	252.425929	-85.397474	-76.185200	254.958515	-166.348323	-225.924638	57.808642	179.767738	5.051674	64.296891	165.528021	-8.910164	58.340118	238.390342	-220.192641	55.411023	-104.871353	8.640607	60.787933	-83.200860	-15.719802	55.402345	-171.422362	12.736810	1393.721076	16.184394	-74.352152	1444.650704	206.910009	-73.519292	1439.921329	-176.706374	-135.883771	108.852160	-106.822951	-143.731295	111.553107	176.926383	5.275953	905.780816	-55.528227	-7.020549	910.290534	114.093571	-66.819275	499.487238	-98.616631	-45.337111	499.382035	149.060092	
113	1.120000	-138.631592	1011.617162	19.882020	63.288365	982.615653	150.101316	80.327516	976.368720	-84.845295	-46.679727	505.485883	204.223386	-43.899502	493.241792	93.801822	88.177853	737.651848	140.619356	38.000251	632.090127	90.434455	39.809316	624.168658	174.973216	-59.132869	512.594266	-158.759435	-74.442257	486.386843	-38.483875	90.713791	756.927049	-70.872709	40.983755	644.079430	-33.665211	54.238349	639.536384	-109.919050	-155.086199	103.785619	223.211277	-132.358684	119.332216	130.629353	-30.268744	328.016678	189.711468	-87.681564	223.753122	144.228017	-88.750920	225.720906	225.936790	-146.757632	97.097749	-152.586149	-124.996162	120.614641	-61.059622	-41.360707	367.230604	-125.524303	-80.833796	252.428411	-85.402235	-76.167137	254.960047	-166.350154	-225.918655	57.819287	179.763560	5.067894	64.318576	165.523391	-8.906755	58.338657	238.388014	-220.189997	55.417505	-104.870609	8.641708	60.789095	-83.210853	-15.718632	55.400713	-171.420873	12.813029	1393.710407	16.152651	-74.260145	1444.646728	206.883147	-73.437381	1439.914286	-176.732879	-135.876897	108.856195	-106.822885	-143.722442	111.558918	176.920315	5.360704	905.775300	-55.547671	-6.940834	910.285318	114.073730	-66.787563	499.490555	-98.621655	-45.289614	499.363838	149.012604	
114	1.130000	-138.545132	1011.618252	19.867075	63.364738	982.607957	150.085271	80.414645	976.360666	-84.860947	-46.628031	505.480762	204.211838	-43.859344	493.214881	93.734453	88.233748	737.638536	140.603397	38.067644	632.080756	90.422418	39.877260	624.162425	174.960629	-59.092867	512.591154	-158.767157	-74.415944	486.397250	-38.491636	90.778022	756.911801	-70.875898	41.201704	644.199636	-33.679941	54.292258	639.524898	-109.920581	-155.078190	103.794014	223.205271	-132.350677	119.336346	130.622367	-30.237246	328.010855	189.699509	-87.629958	223.758741	144.215922	-88.726009	225.723893	225.927429	-146.750964	97.103400	-152.585073	-124.988598	120.617622	-61.059686	-41.334558	367.231676	-125.527134	-80.821852	252.431895	-85.406437	-76.148123	254.961723	-166.351359	-225.913323	57.830341	179.759089	5.087197	64.345204	165.517842	-8.902594	58.337514	238.385701	-220.186996	55.424178	-104.870289	8.643499	60.790683	-83.221324	-15.717663	55.399509	-171.419562	12.891086	1393.700334	16.121415	-74.169992	1444.646177	206.855919	-73.349550	1439.907524	-176.760514	-135.869781	108.860511	-106.822380	-143.714434	111.565180	176.913819	5.444147	905.770236	-55.566822	-6.865155	910.280512	114.054270	-66.754405	499.494202	-98.629397	-45.243688	499.347822	148.973146	
